<mxfile host="app.diagrams.net" modified="2024-01-11T14:12:13.901Z" agent="Mozilla/5.0 (Windows NT 10.0; Win64; x64; rv:121.0) Gecko/20100101 Firefox/121.0" etag="9Fmdvwhjbi6f7FO3i9dk" version="22.1.18" type="github">
  <diagram name="Page-1" id="efa7a0a1-bf9b-a30e-e6df-94a7791c09e9">
    <mxGraphModel dx="2092" dy="1151" grid="1" gridSize="10" guides="1" tooltips="1" connect="1" arrows="1" fold="1" page="1" pageScale="1" pageWidth="826" pageHeight="1169" background="none" math="0" shadow="0">
      <root>
        <mxCell id="0" />
        <mxCell id="1" parent="0" />
        <mxCell id="BFmJljl-8hoy7SMpkLxM-120" value="" style="group" parent="1" vertex="1" connectable="0">
          <mxGeometry width="825" height="970" as="geometry" />
        </mxCell>
        <mxCell id="34" value="&lt;p style=&quot;margin: 0px ; margin-top: 4px ; text-align: center ; text-decoration: underline&quot;&gt;&lt;strong&gt;Thing&lt;/strong&gt;&lt;/p&gt;&lt;hr&gt;COLUMNS.Things" style="verticalAlign=top;align=left;overflow=fill;fontSize=12;fontFamily=Helvetica;html=1;strokeColor=#003366;shadow=1;fillColor=#D4E1F5;fontColor=#003366" parent="BFmJljl-8hoy7SMpkLxM-120" vertex="1">
          <mxGeometry y="590.8181818181819" width="200" height="119.04545454545456" as="geometry" />
        </mxCell>
        <mxCell id="22" value="&lt;p style=&quot;margin: 0px; margin-top: 4px; text-align: center; text-decoration: underline;&quot;&gt;&lt;strong&gt;Observation&lt;/strong&gt;&lt;/p&gt;&lt;hr&gt;COLUMNS.Observations" style="verticalAlign=top;align=left;overflow=fill;fontSize=12;fontFamily=Helvetica;html=1;strokeColor=#003366;shadow=1;fillColor=#D4E1F5;fontColor=#003366" parent="BFmJljl-8hoy7SMpkLxM-120" vertex="1">
          <mxGeometry x="570" y="211.63636363636365" width="235" height="202.81818181818184" as="geometry" />
        </mxCell>
        <mxCell id="23" value="&lt;p style=&quot;margin: 0px; margin-top: 4px; text-align: center; text-decoration: underline;&quot;&gt;&lt;strong&gt;ObservedProperty&lt;/strong&gt;&lt;/p&gt;&lt;hr&gt;COLUMNS.ObservedProperties" style="verticalAlign=top;align=left;overflow=fill;fontSize=12;fontFamily=Helvetica;html=1;strokeColor=#003366;shadow=1;fillColor=#D4E1F5;fontColor=#003366" parent="BFmJljl-8hoy7SMpkLxM-120" vertex="1">
          <mxGeometry x="230" width="165" height="136.68181818181822" as="geometry" />
        </mxCell>
        <mxCell id="24" value="&lt;p style=&quot;margin: 0px; margin-top: 4px; text-align: center; text-decoration: underline;&quot;&gt;&lt;strong&gt;Sensor&lt;/strong&gt;&lt;/p&gt;&lt;hr&gt;COLUMNS.Sensors" style="verticalAlign=top;align=left;overflow=fill;fontSize=12;fontFamily=Helvetica;html=1;strokeColor=#003366;shadow=1;fillColor=#D4E1F5;fontColor=#003366" parent="BFmJljl-8hoy7SMpkLxM-120" vertex="1">
          <mxGeometry width="165" height="167.54545454545456" as="geometry" />
        </mxCell>
        <mxCell id="27" value="&lt;p style=&quot;margin: 0px; margin-top: 4px; text-align: center; text-decoration: underline;&quot;&gt;&lt;strong&gt;FeatureOfInterest&lt;/strong&gt;&lt;/p&gt;&lt;hr&gt;COLUMNS.FeaturesOfInterest" style="verticalAlign=top;align=left;overflow=fill;fontSize=12;fontFamily=Helvetica;html=1;strokeColor=#003366;shadow=1;fillColor=#D4E1F5;fontColor=#003366" parent="BFmJljl-8hoy7SMpkLxM-120" vertex="1">
          <mxGeometry x="577.5" width="220" height="114.63636363636364" as="geometry" />
        </mxCell>
        <mxCell id="28" value="&lt;p style=&quot;margin: 0px; margin-top: 4px; text-align: center; text-decoration: underline;&quot;&gt;&lt;strong&gt;Location&lt;/strong&gt;&lt;/p&gt;&lt;hr&gt;COLUMNS.Locations" style="verticalAlign=top;align=left;overflow=fill;fontSize=12;fontFamily=Helvetica;html=1;strokeColor=#003366;shadow=1;fillColor=#D4E1F5;fontColor=#003366" parent="BFmJljl-8hoy7SMpkLxM-120" vertex="1">
          <mxGeometry y="767.1818181818182" width="200" height="114.63636363636364" as="geometry" />
        </mxCell>
        <mxCell id="29" value="&lt;p style=&quot;margin: 0px; margin-top: 4px; text-align: center; text-decoration: underline;&quot;&gt;&lt;strong&gt;Datastream&lt;/strong&gt;&lt;/p&gt;&lt;hr&gt;&lt;div&gt;COLUMNS.Datastreams&lt;/div&gt;&lt;div&gt;&lt;br&gt;&lt;/div&gt;&lt;div&gt;&lt;br&gt;&lt;/div&gt;&lt;div&gt;&lt;p style=&quot;margin: 0px; margin-top: 4px; text-align: center; text-decoration: underline;&quot;&gt;&lt;strong&gt;MultiDatastream&lt;/strong&gt;&lt;/p&gt;&lt;hr&gt;COLUMNS.MultiDatastreams&lt;/div&gt;" style="verticalAlign=top;align=left;overflow=fill;fontSize=12;fontFamily=Helvetica;html=1;strokeColor=#003366;shadow=1;fillColor=#D4E1F5;fontColor=#003366" parent="BFmJljl-8hoy7SMpkLxM-120" vertex="1">
          <mxGeometry x="180" y="202.81818181818184" width="265.8" height="370.36363636363643" as="geometry" />
        </mxCell>
        <mxCell id="33" value="&lt;p style=&quot;margin: 0px; margin-top: 4px; text-align: center; text-decoration: underline;&quot;&gt;&lt;strong&gt;HistoricalLocation&lt;/strong&gt;&lt;/p&gt;&lt;hr&gt;&lt;p style=&quot;margin: 0px; margin-left: 8px;&quot;&gt;COLUMNS.HistoricalLocations&lt;/p&gt;" style="verticalAlign=top;align=left;overflow=fill;fontSize=12;fontFamily=Helvetica;html=1;strokeColor=#003366;shadow=1;fillColor=#D4E1F5;fontColor=#003366" parent="BFmJljl-8hoy7SMpkLxM-120" vertex="1">
          <mxGeometry x="260" y="692.2272727272729" width="165" height="66.13636363636364" as="geometry" />
        </mxCell>
        <mxCell id="51" value="" style="endArrow=none;endSize=12;startArrow=none;startSize=14;startFill=0;edgeStyle=orthogonalEdgeStyle;endFill=0;" parent="BFmJljl-8hoy7SMpkLxM-120" source="23" target="29" edge="1">
          <mxGeometry x="395" y="543.2" as="geometry">
            <mxPoint x="385" y="527.3272727272728" as="sourcePoint" />
            <mxPoint x="547" y="527.3272727272728" as="targetPoint" />
          </mxGeometry>
        </mxCell>
        <mxCell id="52" value="1" style="resizable=0;align=left;verticalAlign=top;labelBackgroundColor=#ffffff;fontSize=16;strokeColor=#003366;shadow=1;fillColor=#D4E1F5;fontColor=#003366" parent="51" connectable="0" vertex="1">
          <mxGeometry x="-1" relative="1" as="geometry">
            <mxPoint x="-25" as="offset" />
          </mxGeometry>
        </mxCell>
        <mxCell id="53" value="0..*&#xa;" style="resizable=0;align=right;verticalAlign=top;labelBackgroundColor=#ffffff;fontSize=16;strokeColor=#003366;shadow=1;fillColor=#D4E1F5;fontColor=#003366" parent="51" connectable="0" vertex="1">
          <mxGeometry x="1" relative="1" as="geometry">
            <mxPoint x="40" y="-28" as="offset" />
          </mxGeometry>
        </mxCell>
        <mxCell id="66" value="" style="endArrow=none;endSize=12;startArrow=none;startSize=14;startFill=0;edgeStyle=orthogonalEdgeStyle;entryX=1;entryY=0.5;entryDx=0;entryDy=0;endFill=0;exitX=0.5;exitY=1;exitDx=0;exitDy=0;rounded=0;curved=0;" parent="BFmJljl-8hoy7SMpkLxM-120" source="33" target="28" edge="1">
          <mxGeometry x="476" y="816.5636363636364" as="geometry">
            <mxPoint x="466" y="800.6909090909091" as="sourcePoint" />
            <mxPoint x="985" y="1178.990909090909" as="targetPoint" />
          </mxGeometry>
        </mxCell>
        <mxCell id="67" value="0..*" style="resizable=0;align=left;verticalAlign=top;labelBackgroundColor=#ffffff;fontSize=16;strokeColor=#003366;shadow=1;fillColor=#D4E1F5;fontColor=#003366" parent="66" connectable="0" vertex="1">
          <mxGeometry x="-1" relative="1" as="geometry">
            <mxPoint x="10" as="offset" />
          </mxGeometry>
        </mxCell>
        <mxCell id="68" value="1..*" style="resizable=0;align=right;verticalAlign=top;labelBackgroundColor=#ffffff;fontSize=16;strokeColor=#003366;shadow=1;fillColor=#D4E1F5;fontColor=#003366" parent="66" connectable="0" vertex="1">
          <mxGeometry x="1" relative="1" as="geometry">
            <mxPoint x="30" y="5" as="offset" />
          </mxGeometry>
        </mxCell>
        <mxCell id="72" value="" style="endArrow=none;endSize=12;startArrow=none;startSize=14;startFill=0;edgeStyle=orthogonalEdgeStyle;rounded=0;endFill=0;exitX=0.5;exitY=0;exitDx=0;exitDy=0;" parent="BFmJljl-8hoy7SMpkLxM-120" source="34" edge="1">
          <mxGeometry x="425" y="1272.4636363636364" as="geometry">
            <mxPoint x="415" y="1256.590909090909" as="sourcePoint" />
            <mxPoint x="180" y="529.0909090909091" as="targetPoint" />
            <Array as="points">
              <mxPoint x="100" y="529.0909090909091" />
              <mxPoint x="180" y="529.0909090909091" />
            </Array>
          </mxGeometry>
        </mxCell>
        <mxCell id="73" value="0..*&#xa;" style="resizable=0;align=left;verticalAlign=top;labelBackgroundColor=#ffffff;fontSize=16;strokeColor=#003366;shadow=1;fillColor=#D4E1F5;fontColor=#003366" parent="72" connectable="0" vertex="1">
          <mxGeometry x="-1" relative="1" as="geometry">
            <mxPoint x="50" y="-100" as="offset" />
          </mxGeometry>
        </mxCell>
        <mxCell id="74" value="1" style="resizable=0;align=right;verticalAlign=top;labelBackgroundColor=#ffffff;fontSize=16;strokeColor=#003366;shadow=1;fillColor=#D4E1F5;fontColor=#003366" parent="72" connectable="0" vertex="1">
          <mxGeometry x="1" relative="1" as="geometry">
            <mxPoint x="-90" y="40" as="offset" />
          </mxGeometry>
        </mxCell>
        <mxCell id="84" value="" style="endArrow=none;endSize=12;startArrow=none;startSize=14;startFill=0;edgeStyle=orthogonalEdgeStyle;endFill=0;" parent="BFmJljl-8hoy7SMpkLxM-120" source="27" target="22" edge="1">
          <mxGeometry x="1411" y="201.05454545454546" as="geometry">
            <mxPoint x="1400" y="186.0636363636364" as="sourcePoint" />
            <mxPoint x="1563" y="186.0636363636364" as="targetPoint" />
          </mxGeometry>
        </mxCell>
        <mxCell id="85" value="0..*" style="resizable=0;align=left;verticalAlign=top;labelBackgroundColor=#ffffff;fontSize=16;strokeColor=#003366;shadow=1;fillColor=#D4E1F5;fontColor=#003366" parent="84" connectable="0" vertex="1">
          <mxGeometry x="-1" relative="1" as="geometry">
            <mxPoint x="-36" y="2" as="offset" />
          </mxGeometry>
        </mxCell>
        <mxCell id="86" value="1" style="resizable=0;align=right;verticalAlign=top;labelBackgroundColor=#ffffff;fontSize=16;strokeColor=#003366;shadow=1;fillColor=#D4E1F5;fontColor=#003366" parent="84" connectable="0" vertex="1">
          <mxGeometry x="1" relative="1" as="geometry">
            <mxPoint x="24" y="-26" as="offset" />
          </mxGeometry>
        </mxCell>
        <mxCell id="99" value="" style="endArrow=none;endSize=12;startArrow=none;startSize=14;startFill=0;edgeStyle=orthogonalEdgeStyle;endFill=0;exitX=0.008;exitY=0.198;exitDx=0;exitDy=0;exitPerimeter=0;" parent="BFmJljl-8hoy7SMpkLxM-120" source="29" target="24" edge="1">
          <mxGeometry x="375" y="558.1909090909091" as="geometry">
            <mxPoint x="170" y="273.36363636363643" as="sourcePoint" />
            <mxPoint x="527" y="543.2" as="targetPoint" />
            <Array as="points" />
          </mxGeometry>
        </mxCell>
        <mxCell id="100" value="0..*" style="resizable=0;align=left;verticalAlign=top;labelBackgroundColor=#ffffff;fontSize=16;strokeColor=#003366;shadow=1;fillColor=#D4E1F5;fontColor=#003366" parent="99" connectable="0" vertex="1">
          <mxGeometry x="-1" relative="1" as="geometry">
            <mxPoint x="-26" y="-28" as="offset" />
          </mxGeometry>
        </mxCell>
        <mxCell id="101" value="1" style="resizable=0;align=right;verticalAlign=top;labelBackgroundColor=#ffffff;fontSize=16;strokeColor=#003366;shadow=1;fillColor=#D4E1F5;fontColor=#003366" parent="99" connectable="0" vertex="1">
          <mxGeometry x="1" relative="1" as="geometry">
            <mxPoint x="-10" as="offset" />
          </mxGeometry>
        </mxCell>
        <mxCell id="107" value="" style="endArrow=none;edgeStyle=orthogonalEdgeStyle;" parent="BFmJljl-8hoy7SMpkLxM-120" source="28" target="34" edge="1">
          <mxGeometry x="192" y="1474.4" as="geometry">
            <mxPoint x="182" y="1458.5272727272727" as="sourcePoint" />
            <mxPoint x="345" y="1458.5272727272727" as="targetPoint" />
          </mxGeometry>
        </mxCell>
        <mxCell id="108" value="0..*" style="resizable=0;align=left;verticalAlign=bottom;labelBackgroundColor=#ffffff;fontSize=16;strokeColor=#003366;shadow=1;fillColor=#D4E1F5;fontColor=#003366" parent="107" connectable="0" vertex="1">
          <mxGeometry x="-1" relative="1" as="geometry">
            <mxPoint x="19" y="-10" as="offset" />
          </mxGeometry>
        </mxCell>
        <mxCell id="109" value="0..*" style="resizable=0;align=right;verticalAlign=bottom;labelBackgroundColor=#ffffff;fontSize=16;strokeColor=#003366;shadow=1;fillColor=#D4E1F5;fontColor=#003366" parent="107" connectable="0" vertex="1">
          <mxGeometry x="1" relative="1" as="geometry">
            <mxPoint x="39" y="24" as="offset" />
          </mxGeometry>
        </mxCell>
        <mxCell id="110" value="1" style="resizable=0;align=right;verticalAlign=top;labelBackgroundColor=#ffffff;fontSize=16;strokeColor=#003366;shadow=1;fillColor=#D4E1F5;fontColor=#003366" parent="BFmJljl-8hoy7SMpkLxM-120" connectable="0" vertex="1">
          <mxGeometry x="219" y="634.909090909091" as="geometry" />
        </mxCell>
        <mxCell id="111" value="0..*" style="resizable=0;align=right;verticalAlign=bottom;labelBackgroundColor=#ffffff;fontSize=16;strokeColor=#003366;shadow=1;fillColor=#D4E1F5;fontColor=#003366" parent="BFmJljl-8hoy7SMpkLxM-120" connectable="0" vertex="1">
          <mxGeometry x="389" y="802.4545454545455" as="geometry">
            <mxPoint x="-23" y="-144" as="offset" />
          </mxGeometry>
        </mxCell>
        <mxCell id="112" value="0..*" style="resizable=0;align=left;verticalAlign=top;labelBackgroundColor=#ffffff;fontSize=16;strokeColor=#003366;shadow=1;fillColor=#D4E1F5;fontColor=#003366" parent="BFmJljl-8hoy7SMpkLxM-120" connectable="0" vertex="1">
          <mxGeometry x="540" y="313.04545454545456" as="geometry" />
        </mxCell>
        <mxCell id="113" value="1" style="resizable=0;align=left;verticalAlign=top;labelBackgroundColor=#ffffff;fontSize=16;strokeColor=#003366;shadow=1;fillColor=#D4E1F5;fontColor=#003366" parent="BFmJljl-8hoy7SMpkLxM-120" connectable="0" vertex="1">
          <mxGeometry x="457" y="313.04545454545456" as="geometry" />
        </mxCell>
        <mxCell id="114" style="edgeStyle=orthogonalEdgeStyle;rounded=0;orthogonalLoop=1;jettySize=auto;html=1;endArrow=none;endFill=0;" parent="BFmJljl-8hoy7SMpkLxM-120" source="115" target="29" edge="1">
          <mxGeometry relative="1" as="geometry">
            <Array as="points">
              <mxPoint x="507" y="511.4545454545455" />
              <mxPoint x="507" y="440.90909090909093" />
            </Array>
          </mxGeometry>
        </mxCell>
        <mxCell id="115" value="&lt;p style=&quot;margin: 0px; margin-top: 4px; text-align: center; text-decoration: underline;&quot;&gt;&lt;strong&gt;Lora&lt;/strong&gt;&lt;/p&gt;&lt;hr&gt;COLUMNS.Loras" style="verticalAlign=top;align=left;overflow=fill;fontSize=12;fontFamily=Helvetica;html=1;strokeColor=#d79b00;shadow=1;fillColor=#ffe6cc;" parent="BFmJljl-8hoy7SMpkLxM-120" vertex="1">
          <mxGeometry x="568" y="449.72727272727275" width="233" height="123.45454545454547" as="geometry" />
        </mxCell>
        <mxCell id="116" style="edgeStyle=orthogonalEdgeStyle;rounded=0;orthogonalLoop=1;jettySize=auto;html=1;entryX=0.5;entryY=1;entryDx=0;entryDy=0;endArrow=none;endFill=0;" parent="BFmJljl-8hoy7SMpkLxM-120" source="117" target="115" edge="1">
          <mxGeometry relative="1" as="geometry" />
        </mxCell>
        <mxCell id="117" value="&lt;p style=&quot;margin: 0px; margin-top: 4px; text-align: center; text-decoration: underline;&quot;&gt;&lt;strong&gt;Decoder&lt;/strong&gt;&lt;/p&gt;&lt;hr&gt;&lt;div&gt;COLUMNS.Decoders&lt;/div&gt;&lt;div&gt;&lt;br&gt;&lt;/div&gt;" style="verticalAlign=top;align=left;overflow=fill;fontSize=12;fontFamily=Helvetica;html=1;strokeColor=#d79b00;shadow=1;fillColor=#ffe6cc;" parent="BFmJljl-8hoy7SMpkLxM-120" vertex="1">
          <mxGeometry x="568" y="643.7272727272729" width="233.61" height="127.86363636363637" as="geometry" />
        </mxCell>
        <mxCell id="118" value="0..*&#xa;" style="resizable=0;align=left;verticalAlign=top;labelBackgroundColor=#ffffff;fontSize=16;strokeColor=#003366;shadow=1;fillColor=#D4E1F5;fontColor=#003366" parent="BFmJljl-8hoy7SMpkLxM-120" connectable="0" vertex="1">
          <mxGeometry x="457.05" y="449.72727272727275" as="geometry" />
        </mxCell>
        <mxCell id="119" value="1" style="resizable=0;align=right;verticalAlign=top;labelBackgroundColor=#ffffff;fontSize=16;strokeColor=#003366;shadow=1;fillColor=#D4E1F5;fontColor=#003366" parent="BFmJljl-8hoy7SMpkLxM-120" connectable="0" vertex="1">
          <mxGeometry x="560" y="480.5909090909091" as="geometry" />
        </mxCell>
        <mxCell id="120" value="1" style="resizable=0;align=right;verticalAlign=top;labelBackgroundColor=#ffffff;fontSize=16;strokeColor=#003366;shadow=1;fillColor=#D4E1F5;fontColor=#003366" parent="BFmJljl-8hoy7SMpkLxM-120" connectable="0" vertex="1">
          <mxGeometry x="710" y="617.2727272727274" as="geometry" />
        </mxCell>
        <mxCell id="121" value="0..*&#xa;" style="resizable=0;align=left;verticalAlign=top;labelBackgroundColor=#ffffff;fontSize=16;strokeColor=#003366;shadow=1;fillColor=#D4E1F5;fontColor=#003366" parent="BFmJljl-8hoy7SMpkLxM-120" connectable="0" vertex="1">
          <mxGeometry x="650" y="573.1818181818182" as="geometry" />
        </mxCell>
        <mxCell id="122" style="edgeStyle=orthogonalEdgeStyle;rounded=0;orthogonalLoop=1;jettySize=auto;html=1;entryX=0.996;entryY=0.341;entryDx=0;entryDy=0;entryPerimeter=0;endArrow=none;endFill=0;" parent="BFmJljl-8hoy7SMpkLxM-120" source="33" target="34" edge="1">
          <mxGeometry relative="1" as="geometry">
            <Array as="points">
              <mxPoint x="340" y="630.5" />
            </Array>
          </mxGeometry>
        </mxCell>
        <mxCell id="123" style="edgeStyle=orthogonalEdgeStyle;rounded=0;orthogonalLoop=1;jettySize=auto;html=1;entryX=0.997;entryY=0.298;entryDx=0;entryDy=0;entryPerimeter=0;endArrow=none;endFill=0;" parent="BFmJljl-8hoy7SMpkLxM-120" source="22" target="29" edge="1">
          <mxGeometry relative="1" as="geometry" />
        </mxCell>
        <mxCell id="124" value="&lt;p style=&quot;margin: 0px; margin-top: 4px; text-align: center; text-decoration: underline;&quot;&gt;&lt;strong&gt;Logs&lt;/strong&gt;&lt;/p&gt;&lt;hr&gt;COLUMNS.Logs" style="verticalAlign=top;align=left;overflow=fill;fontSize=12;fontFamily=Helvetica;html=1;strokeColor=#b85450;shadow=1;fillColor=#f8cecc;" parent="BFmJljl-8hoy7SMpkLxM-120" vertex="1">
          <mxGeometry x="11" y="313.04545454545456" width="140" height="167.54545454545456" as="geometry" />
        </mxCell>
        <mxCell id="yw8UrqIoBHeE8c5WqQu3-125" value="&lt;b&gt;&lt;font style=&quot;font-size: 19px;&quot;&gt;Version&lt;/font&gt;&lt;/b&gt;" style="text;html=1;align=center;verticalAlign=middle;resizable=0;points=[];autosize=1;strokeColor=none;fillColor=none;" vertex="1" parent="BFmJljl-8hoy7SMpkLxM-120">
          <mxGeometry x="440" y="44.09090909090909" width="90" height="40" as="geometry" />
        </mxCell>
      </root>
    </mxGraphModel>
  </diagram>
</mxfile>
